<svg xmlns="http://www.w3.org/2000/svg" xmlns:xlink="http://www.w3.org/1999/xlink" width="500" zoomAndPan="magnify" viewBox="0 0 375 374.999991" height="500" preserveAspectRatio="xMidYMid meet" version="1.0"><defs><g/><clipPath id="262b510578"><path d="M 167.304688 114.308594 L 254.304688 114.308594 L 254.304688 193.058594 L 167.304688 193.058594 Z M 167.304688 114.308594 " clip-rule="nonzero"/></clipPath></defs><rect x="-37.5" width="450" fill="#ffffff" y="-37.499999" height="449.999989" fill-opacity="1"/><rect x="-37.5" width="450" fill="#ffffff" y="-37.499999" height="449.999989" fill-opacity="1"/><g clip-path="url(#262b510578)"><path fill="#05b0fc" d="M 231.683594 122.644531 L 212.992188 122.644531 L 212.992188 116.414062 C 212.992188 116.136719 212.9375 115.875 212.832031 115.617188 C 212.726562 115.363281 212.578125 115.140625 212.382812 114.945312 C 212.1875 114.75 211.964844 114.601562 211.710938 114.496094 C 211.457031 114.390625 211.191406 114.335938 210.914062 114.335938 C 210.640625 114.335938 210.375 114.390625 210.121094 114.496094 C 209.867188 114.601562 209.640625 114.75 209.445312 114.945312 C 209.25 115.140625 209.101562 115.363281 208.996094 115.617188 C 208.890625 115.875 208.839844 116.136719 208.839844 116.414062 L 208.839844 122.644531 L 190.148438 122.644531 C 189.464844 122.644531 188.789062 122.710938 188.121094 122.84375 C 187.453125 122.976562 186.804688 123.175781 186.175781 123.4375 C 185.546875 123.699219 184.949219 124.019531 184.382812 124.398438 C 183.8125 124.777344 183.289062 125.207031 182.808594 125.6875 C 182.324219 126.171875 181.894531 126.695312 181.515625 127.261719 C 181.136719 127.828125 180.816406 128.425781 180.558594 129.054688 C 180.296875 129.683594 180.097656 130.335938 179.964844 131.003906 C 179.832031 131.671875 179.765625 132.347656 179.765625 133.027344 L 179.765625 170.410156 C 179.765625 171.089844 179.832031 171.765625 179.964844 172.433594 C 180.097656 173.101562 180.296875 173.75 180.558594 174.382812 C 180.816406 175.011719 181.136719 175.609375 181.515625 176.175781 C 181.894531 176.742188 182.324219 177.265625 182.808594 177.75 C 183.289062 178.230469 183.8125 178.660156 184.382812 179.039062 C 184.949219 179.417969 185.546875 179.738281 186.175781 180 C 186.804688 180.261719 187.453125 180.457031 188.121094 180.589844 C 188.789062 180.726562 189.464844 180.792969 190.148438 180.792969 L 201.496094 180.792969 L 209.1875 192.328125 C 209.28125 192.46875 209.390625 192.597656 209.519531 192.714844 C 209.644531 192.828125 209.785156 192.925781 209.933594 193.007812 C 210.085938 193.085938 210.242188 193.148438 210.410156 193.191406 C 210.574219 193.230469 210.742188 193.253906 210.914062 193.253906 C 211.085938 193.253906 211.253906 193.230469 211.417969 193.191406 C 211.585938 193.148438 211.742188 193.085938 211.894531 193.007812 C 212.046875 192.925781 212.183594 192.828125 212.308594 192.714844 C 212.4375 192.597656 212.546875 192.46875 212.644531 192.328125 L 220.332031 180.792969 L 231.683594 180.792969 C 232.363281 180.792969 233.039062 180.726562 233.707031 180.589844 C 234.375 180.457031 235.023438 180.261719 235.652344 180 C 236.285156 179.738281 236.882812 179.417969 237.449219 179.039062 C 238.015625 178.660156 238.539062 178.230469 239.023438 177.75 C 239.503906 177.265625 239.933594 176.742188 240.3125 176.175781 C 240.691406 175.609375 241.011719 175.011719 241.273438 174.382812 C 241.535156 173.75 241.730469 173.101562 241.863281 172.433594 C 242 171.765625 242.066406 171.089844 242.066406 170.410156 L 242.066406 133.027344 C 242.066406 132.347656 242 131.671875 241.863281 131.003906 C 241.730469 130.335938 241.535156 129.683594 241.273438 129.054688 C 241.011719 128.425781 240.691406 127.828125 240.3125 127.261719 C 239.933594 126.695312 239.503906 126.171875 239.023438 125.6875 C 238.539062 125.207031 238.015625 124.777344 237.449219 124.398438 C 236.882812 124.019531 236.285156 123.699219 235.652344 123.4375 C 235.023438 123.175781 234.375 122.976562 233.707031 122.84375 C 233.039062 122.710938 232.363281 122.644531 231.683594 122.644531 Z M 237.914062 170.410156 C 237.910156 170.816406 237.871094 171.222656 237.792969 171.625 C 237.710938 172.023438 237.59375 172.414062 237.4375 172.792969 C 237.28125 173.167969 237.085938 173.527344 236.859375 173.867188 C 236.632812 174.207031 236.375 174.523438 236.085938 174.8125 C 235.796875 175.101562 235.480469 175.359375 235.140625 175.585938 C 234.800781 175.8125 234.441406 176.007812 234.066406 176.164062 C 233.6875 176.320312 233.296875 176.4375 232.898438 176.519531 C 232.496094 176.597656 232.089844 176.636719 231.683594 176.640625 L 219.222656 176.640625 C 218.875 176.640625 218.546875 176.722656 218.242188 176.886719 C 217.9375 177.050781 217.6875 177.273438 217.492188 177.5625 L 210.914062 187.433594 L 204.335938 177.5625 C 204.144531 177.273438 203.894531 177.050781 203.585938 176.886719 C 203.28125 176.722656 202.953125 176.640625 202.609375 176.640625 L 190.148438 176.640625 C 189.738281 176.636719 189.332031 176.597656 188.933594 176.519531 C 188.53125 176.4375 188.140625 176.320312 187.765625 176.164062 C 187.386719 176.007812 187.027344 175.8125 186.6875 175.585938 C 186.347656 175.359375 186.035156 175.101562 185.742188 174.8125 C 185.453125 174.523438 185.195312 174.207031 184.96875 173.867188 C 184.742188 173.527344 184.550781 173.167969 184.394531 172.792969 C 184.238281 172.414062 184.117188 172.023438 184.039062 171.625 C 183.957031 171.222656 183.917969 170.816406 183.917969 170.410156 L 183.917969 164.179688 L 237.914062 164.179688 Z M 237.914062 160.023438 L 183.917969 160.023438 L 183.917969 133.027344 C 183.917969 132.617188 183.957031 132.214844 184.039062 131.8125 C 184.117188 131.410156 184.238281 131.023438 184.394531 130.644531 C 184.550781 130.265625 184.742188 129.90625 184.96875 129.566406 C 185.195312 129.226562 185.453125 128.914062 185.742188 128.625 C 186.035156 128.335938 186.347656 128.078125 186.6875 127.847656 C 187.027344 127.621094 187.386719 127.429688 187.765625 127.273438 C 188.140625 127.117188 188.53125 127 188.933594 126.917969 C 189.332031 126.839844 189.738281 126.796875 190.148438 126.796875 L 231.683594 126.796875 C 232.089844 126.796875 232.496094 126.839844 232.898438 126.917969 C 233.296875 127 233.6875 127.117188 234.066406 127.273438 C 234.441406 127.429688 234.800781 127.621094 235.140625 127.847656 C 235.480469 128.078125 235.796875 128.335938 236.085938 128.625 C 236.375 128.914062 236.632812 129.226562 236.859375 129.566406 C 237.085938 129.90625 237.28125 130.265625 237.4375 130.644531 C 237.59375 131.023438 237.710938 131.410156 237.792969 131.8125 C 237.871094 132.214844 237.910156 132.617188 237.914062 133.027344 Z M 202.609375 145.488281 C 202.609375 145.761719 202.582031 146.03125 202.527344 146.296875 C 202.476562 146.566406 202.394531 146.824219 202.292969 147.078125 C 202.1875 147.328125 202.058594 147.570312 201.90625 147.796875 C 201.757812 148.023438 201.585938 148.230469 201.390625 148.425781 C 201.199219 148.617188 200.988281 148.789062 200.761719 148.941406 C 200.535156 149.09375 200.296875 149.222656 200.042969 149.324219 C 199.792969 149.429688 199.53125 149.507812 199.265625 149.5625 C 198.996094 149.613281 198.726562 149.640625 198.453125 149.640625 C 198.183594 149.640625 197.910156 149.613281 197.644531 149.5625 C 197.375 149.507812 197.117188 149.429688 196.863281 149.324219 C 196.613281 149.222656 196.375 149.09375 196.148438 148.941406 C 195.921875 148.789062 195.710938 148.617188 195.515625 148.425781 C 195.324219 148.230469 195.152344 148.023438 195 147.796875 C 194.847656 147.570312 194.722656 147.328125 194.617188 147.078125 C 194.511719 146.824219 194.433594 146.566406 194.378906 146.296875 C 194.328125 146.03125 194.300781 145.761719 194.300781 145.488281 C 194.300781 145.214844 194.328125 144.945312 194.378906 144.675781 C 194.433594 144.410156 194.511719 144.152344 194.617188 143.898438 C 194.722656 143.648438 194.847656 143.40625 195 143.179688 C 195.152344 142.953125 195.324219 142.742188 195.515625 142.550781 C 195.710938 142.359375 195.921875 142.1875 196.148438 142.035156 C 196.375 141.882812 196.613281 141.753906 196.863281 141.652344 C 197.117188 141.546875 197.375 141.46875 197.644531 141.414062 C 197.910156 141.359375 198.183594 141.335938 198.453125 141.335938 C 198.726562 141.335938 198.996094 141.359375 199.265625 141.414062 C 199.53125 141.46875 199.792969 141.546875 200.042969 141.652344 C 200.296875 141.753906 200.535156 141.882812 200.761719 142.035156 C 200.988281 142.1875 201.199219 142.359375 201.390625 142.550781 C 201.585938 142.742188 201.757812 142.953125 201.90625 143.179688 C 202.058594 143.40625 202.1875 143.648438 202.292969 143.898438 C 202.394531 144.152344 202.476562 144.410156 202.527344 144.675781 C 202.582031 144.945312 202.609375 145.214844 202.609375 145.488281 Z M 227.527344 145.488281 C 227.527344 145.761719 227.503906 146.03125 227.449219 146.296875 C 227.394531 146.566406 227.316406 146.824219 227.210938 147.078125 C 227.109375 147.328125 226.980469 147.570312 226.828125 147.796875 C 226.675781 148.023438 226.503906 148.230469 226.3125 148.425781 C 226.121094 148.617188 225.910156 148.789062 225.683594 148.941406 C 225.457031 149.09375 225.214844 149.222656 224.964844 149.324219 C 224.710938 149.429688 224.453125 149.507812 224.183594 149.5625 C 223.917969 149.613281 223.648438 149.640625 223.375 149.640625 C 223.101562 149.640625 222.832031 149.613281 222.566406 149.5625 C 222.296875 149.507812 222.039062 149.429688 221.785156 149.324219 C 221.535156 149.222656 221.292969 149.09375 221.066406 148.941406 C 220.839844 148.789062 220.632812 148.617188 220.4375 148.425781 C 220.246094 148.230469 220.074219 148.023438 219.921875 147.796875 C 219.769531 147.570312 219.640625 147.328125 219.539062 147.078125 C 219.433594 146.824219 219.355469 146.566406 219.300781 146.296875 C 219.25 146.03125 219.222656 145.761719 219.222656 145.488281 C 219.222656 145.214844 219.25 144.945312 219.300781 144.675781 C 219.355469 144.410156 219.433594 144.152344 219.539062 143.898438 C 219.640625 143.648438 219.769531 143.40625 219.921875 143.179688 C 220.074219 142.953125 220.246094 142.742188 220.4375 142.550781 C 220.632812 142.359375 220.839844 142.1875 221.066406 142.035156 C 221.292969 141.882812 221.535156 141.753906 221.785156 141.652344 C 222.039062 141.546875 222.296875 141.46875 222.566406 141.414062 C 222.832031 141.359375 223.101562 141.335938 223.375 141.335938 C 223.648438 141.335938 223.917969 141.359375 224.183594 141.414062 C 224.453125 141.46875 224.710938 141.546875 224.964844 141.652344 C 225.214844 141.753906 225.457031 141.882812 225.683594 142.035156 C 225.910156 142.1875 226.121094 142.359375 226.3125 142.550781 C 226.503906 142.742188 226.675781 142.953125 226.828125 143.179688 C 226.980469 143.40625 227.109375 143.648438 227.210938 143.898438 C 227.316406 144.152344 227.394531 144.410156 227.449219 144.675781 C 227.503906 144.945312 227.527344 145.214844 227.527344 145.488281 Z M 171.457031 137.179688 L 171.457031 153.792969 C 171.457031 154.070312 171.402344 154.335938 171.300781 154.589844 C 171.195312 154.84375 171.042969 155.070312 170.847656 155.261719 C 170.652344 155.457031 170.429688 155.609375 170.175781 155.714844 C 169.921875 155.820312 169.65625 155.871094 169.378906 155.871094 C 169.105469 155.871094 168.839844 155.820312 168.585938 155.714844 C 168.332031 155.609375 168.105469 155.457031 167.910156 155.261719 C 167.71875 155.070312 167.566406 154.84375 167.460938 154.589844 C 167.355469 154.335938 167.304688 154.070312 167.304688 153.792969 L 167.304688 137.179688 C 167.304688 136.90625 167.355469 136.640625 167.460938 136.386719 C 167.566406 136.132812 167.71875 135.90625 167.910156 135.710938 C 168.105469 135.519531 168.332031 135.367188 168.585938 135.261719 C 168.839844 135.15625 169.105469 135.105469 169.378906 135.105469 C 169.65625 135.105469 169.921875 135.15625 170.175781 135.261719 C 170.429688 135.367188 170.652344 135.519531 170.847656 135.710938 C 171.042969 135.90625 171.195312 136.132812 171.300781 136.386719 C 171.402344 136.640625 171.457031 136.90625 171.457031 137.179688 Z M 254.527344 137.179688 L 254.527344 153.792969 C 254.527344 154.070312 254.472656 154.335938 254.367188 154.589844 C 254.261719 154.84375 254.113281 155.070312 253.917969 155.261719 C 253.722656 155.457031 253.5 155.609375 253.242188 155.714844 C 252.988281 155.820312 252.726562 155.871094 252.449219 155.871094 C 252.175781 155.871094 251.910156 155.820312 251.65625 155.714844 C 251.398438 155.609375 251.175781 155.457031 250.980469 155.261719 C 250.785156 155.070312 250.636719 154.84375 250.53125 154.589844 C 250.425781 154.335938 250.371094 154.070312 250.371094 153.792969 L 250.371094 137.179688 C 250.371094 136.90625 250.425781 136.640625 250.53125 136.386719 C 250.636719 136.132812 250.785156 135.90625 250.980469 135.710938 C 251.175781 135.519531 251.398438 135.367188 251.65625 135.261719 C 251.910156 135.15625 252.175781 135.105469 252.449219 135.105469 C 252.726562 135.105469 252.988281 135.15625 253.242188 135.261719 C 253.5 135.367188 253.722656 135.519531 253.917969 135.710938 C 254.113281 135.90625 254.261719 136.132812 254.367188 136.386719 C 254.472656 136.640625 254.527344 136.90625 254.527344 137.179688 Z M 254.527344 137.179688 " fill-opacity="1" fill-rule="nonzero"/></g><g fill="#000000" fill-opacity="1"><g transform="translate(63.30266, 256.338924)"><g><path d="M 5.3125 -42.125 L 18.40625 -42.125 C 23.988281 -42.125 28.222656 -41.335938 31.109375 -39.765625 C 34.003906 -38.191406 35.453125 -35.421875 35.453125 -31.453125 C 35.453125 -29.046875 34.890625 -27.015625 33.765625 -25.359375 C 32.648438 -23.710938 31.050781 -22.710938 28.96875 -22.359375 L 28.96875 -22.0625 C 30.34375 -21.75 31.609375 -21.25 32.765625 -20.5625 C 33.929688 -19.875 34.847656 -18.859375 35.515625 -17.515625 C 36.179688 -16.179688 36.515625 -14.414062 36.515625 -12.21875 C 36.515625 -8.394531 35.128906 -5.398438 32.359375 -3.234375 C 29.585938 -1.078125 25.820312 0 21.0625 0 L 5.3125 0 Z M 14.21875 -25.421875 L 19.40625 -25.421875 C 22.007812 -25.421875 23.8125 -25.820312 24.8125 -26.625 C 25.8125 -27.4375 26.3125 -28.648438 26.3125 -30.265625 C 26.3125 -31.878906 25.722656 -33.039062 24.546875 -33.75 C 23.367188 -34.457031 21.5 -34.8125 18.9375 -34.8125 L 14.21875 -34.8125 Z M 14.21875 -18.34375 L 14.21875 -7.375 L 20.0625 -7.375 C 22.738281 -7.375 24.609375 -7.894531 25.671875 -8.9375 C 26.734375 -9.976562 27.265625 -11.363281 27.265625 -13.09375 C 27.265625 -14.664062 26.722656 -15.929688 25.640625 -16.890625 C 24.554688 -17.859375 22.597656 -18.34375 19.765625 -18.34375 Z M 14.21875 -18.34375 "/></g></g></g><g fill="#000000" fill-opacity="1"><g transform="translate(102.94538, 256.338924)"><g><path d="M 43.546875 -21.125 C 43.546875 -16.757812 42.828125 -12.953125 41.390625 -9.703125 C 39.953125 -6.460938 37.75 -3.9375 34.78125 -2.125 C 31.8125 -0.3125 28.046875 0.59375 23.484375 0.59375 C 18.921875 0.59375 15.15625 -0.3125 12.1875 -2.125 C 9.21875 -3.9375 7.015625 -6.472656 5.578125 -9.734375 C 4.140625 -12.992188 3.421875 -16.8125 3.421875 -21.1875 C 3.421875 -25.550781 4.140625 -29.34375 5.578125 -32.5625 C 7.015625 -35.789062 9.21875 -38.300781 12.1875 -40.09375 C 15.15625 -41.882812 18.941406 -42.78125 23.546875 -42.78125 C 28.109375 -42.78125 31.863281 -41.882812 34.8125 -40.09375 C 37.757812 -38.300781 39.953125 -35.78125 41.390625 -32.53125 C 42.828125 -29.289062 43.546875 -25.488281 43.546875 -21.125 Z M 12.796875 -21.125 C 12.796875 -16.71875 13.640625 -13.242188 15.328125 -10.703125 C 17.023438 -8.171875 19.742188 -6.90625 23.484375 -6.90625 C 27.296875 -6.90625 30.023438 -8.171875 31.671875 -10.703125 C 33.328125 -13.242188 34.15625 -16.71875 34.15625 -21.125 C 34.15625 -25.53125 33.328125 -29 31.671875 -31.53125 C 30.023438 -34.070312 27.316406 -35.34375 23.546875 -35.34375 C 19.765625 -35.34375 17.023438 -34.070312 15.328125 -31.53125 C 13.640625 -29 12.796875 -25.53125 12.796875 -21.125 Z M 12.796875 -21.125 "/></g></g></g><g fill="#000000" fill-opacity="1"><g transform="translate(149.903129, 256.338924)"><g><path d="M 21.53125 0 L 12.625 0 L 12.625 -34.6875 L 1.1875 -34.6875 L 1.1875 -42.125 L 32.984375 -42.125 L 32.984375 -34.6875 L 21.53125 -34.6875 Z M 21.53125 0 "/></g></g></g><g fill="#000000" fill-opacity="1"><g transform="translate(184.059575, 256.338924)"><g><path d="M 3.359375 -4.125 C 3.359375 -5.9375 3.847656 -7.207031 4.828125 -7.9375 C 5.816406 -8.664062 7.019531 -9.03125 8.4375 -9.03125 C 9.8125 -9.03125 10.988281 -8.664062 11.96875 -7.9375 C 12.957031 -7.207031 13.453125 -5.9375 13.453125 -4.125 C 13.453125 -2.394531 12.957031 -1.144531 11.96875 -0.375 C 10.988281 0.382812 9.8125 0.765625 8.4375 0.765625 C 7.019531 0.765625 5.816406 0.382812 4.828125 -0.375 C 3.847656 -1.144531 3.359375 -2.394531 3.359375 -4.125 Z M 3.359375 -4.125 "/></g></g></g><g fill="#000000" fill-opacity="1"><g transform="translate(200.872341, 256.338924)"><g><path d="M 18.171875 -6.4375 C 19.148438 -6.4375 20.09375 -6.523438 21 -6.703125 C 21.90625 -6.878906 22.8125 -7.125 23.71875 -7.4375 L 23.71875 -0.890625 C 22.769531 -0.453125 21.597656 -0.0976562 20.203125 0.171875 C 18.804688 0.453125 17.285156 0.59375 15.640625 0.59375 C 13.710938 0.59375 11.988281 0.28125 10.46875 -0.34375 C 8.957031 -0.976562 7.757812 -2.0625 6.875 -3.59375 C 5.988281 -5.132812 5.546875 -7.300781 5.546875 -10.09375 L 5.546875 -25.609375 L 1.359375 -25.609375 L 1.359375 -29.328125 L 6.1875 -32.265625 L 8.734375 -39.0625 L 14.34375 -39.0625 L 14.34375 -32.21875 L 23.359375 -32.21875 L 23.359375 -25.609375 L 14.34375 -25.609375 L 14.34375 -10.09375 C 14.34375 -8.875 14.695312 -7.957031 15.40625 -7.34375 C 16.113281 -6.738281 17.035156 -6.4375 18.171875 -6.4375 Z M 18.171875 -6.4375 "/></g></g></g><g fill="#000000" fill-opacity="1"><g transform="translate(226.474936, 256.338924)"><g><path d="M 17.875 -32.796875 C 22.320312 -32.796875 25.84375 -31.523438 28.4375 -28.984375 C 31.03125 -26.453125 32.328125 -22.847656 32.328125 -18.171875 L 32.328125 -13.921875 L 11.5625 -13.921875 C 11.644531 -11.441406 12.382812 -9.492188 13.78125 -8.078125 C 15.175781 -6.660156 17.113281 -5.953125 19.59375 -5.953125 C 21.632812 -5.953125 23.507812 -6.160156 25.21875 -6.578125 C 26.925781 -6.992188 28.6875 -7.632812 30.5 -8.5 L 30.5 -1.71875 C 28.882812 -0.925781 27.210938 -0.34375 25.484375 0.03125 C 23.753906 0.40625 21.648438 0.59375 19.171875 0.59375 C 15.953125 0.59375 13.101562 -0.00390625 10.625 -1.203125 C 8.144531 -2.410156 6.195312 -4.222656 4.78125 -6.640625 C 3.363281 -9.054688 2.65625 -12.132812 2.65625 -15.875 C 2.65625 -19.601562 3.289062 -22.726562 4.5625 -25.25 C 5.84375 -27.769531 7.625 -29.65625 9.90625 -30.90625 C 12.1875 -32.164062 14.84375 -32.796875 17.875 -32.796875 Z M 17.9375 -26.546875 C 16.207031 -26.546875 14.789062 -25.992188 13.6875 -24.890625 C 12.582031 -23.796875 11.929688 -22.085938 11.734375 -19.765625 L 24.078125 -19.765625 C 24.035156 -21.691406 23.507812 -23.300781 22.5 -24.59375 C 21.5 -25.894531 19.976562 -26.546875 17.9375 -26.546875 Z M 17.9375 -26.546875 "/></g></g></g><g fill="#000000" fill-opacity="1"><g transform="translate(261.33929, 256.338924)"><g><path d="M 17.703125 0.59375 C 12.898438 0.59375 9.191406 -0.722656 6.578125 -3.359375 C 3.960938 -5.992188 2.65625 -10.1875 2.65625 -15.9375 C 2.65625 -19.863281 3.320312 -23.066406 4.65625 -25.546875 C 6 -28.023438 7.859375 -29.851562 10.234375 -31.03125 C 12.617188 -32.207031 15.363281 -32.796875 18.46875 -32.796875 C 20.664062 -32.796875 22.582031 -32.578125 24.21875 -32.140625 C 25.851562 -31.710938 27.28125 -31.207031 28.5 -30.625 L 25.90625 -23.84375 C 24.53125 -24.382812 23.238281 -24.832031 22.03125 -25.1875 C 20.832031 -25.539062 19.644531 -25.71875 18.46875 -25.71875 C 13.90625 -25.71875 11.625 -22.472656 11.625 -15.984375 C 11.625 -12.765625 12.222656 -10.382812 13.421875 -8.84375 C 14.617188 -7.3125 16.300781 -6.546875 18.46875 -6.546875 C 20.3125 -6.546875 21.941406 -6.789062 23.359375 -7.28125 C 24.773438 -7.78125 26.15625 -8.460938 27.5 -9.328125 L 27.5 -1.828125 C 26.15625 -0.960938 24.742188 -0.34375 23.265625 0.03125 C 21.796875 0.40625 19.941406 0.59375 17.703125 0.59375 Z M 17.703125 0.59375 "/></g></g></g><g fill="#000000" fill-opacity="1"><g transform="translate(291.661256, 256.338924)"><g><path d="M 13.390625 -44.84375 L 13.390625 -35.6875 C 13.390625 -34.082031 13.335938 -32.5625 13.234375 -31.125 C 13.140625 -29.6875 13.054688 -28.671875 12.984375 -28.078125 L 13.453125 -28.078125 C 14.472656 -29.734375 15.789062 -30.929688 17.40625 -31.671875 C 19.019531 -32.421875 20.8125 -32.796875 22.78125 -32.796875 C 26.238281 -32.796875 29.03125 -31.863281 31.15625 -30 C 33.28125 -28.132812 34.34375 -25.132812 34.34375 -21 L 34.34375 0 L 25.546875 0 L 25.546875 -18.828125 C 25.546875 -23.460938 23.816406 -25.78125 20.359375 -25.78125 C 17.722656 -25.78125 15.898438 -24.863281 14.890625 -23.03125 C 13.890625 -21.207031 13.390625 -18.582031 13.390625 -15.15625 L 13.390625 0 L 4.609375 0 L 4.609375 -44.84375 Z M 13.390625 -44.84375 "/></g></g></g></svg>